<?xml version="1.0" encoding="utf-8"?>
<!-- Generator: Adobe Illustrator 22.1.0, SVG Export Plug-In . SVG Version: 6.00 Build 0)  -->
<svg version="1.1" id="레이어_1" xmlns="http://www.w3.org/2000/svg" xmlns:xlink="http://www.w3.org/1999/xlink" x="0px"
	 y="0px" viewBox="0 0 16 16" style="enable-background:new 0 0 16 16;" xml:space="preserve">
<style type="text/css">
	.st0{fill:#F00E15;}
	.st1{fill:#FFFFFF;}
</style>
<title>대지 1</title>
<path class="st0" d="M15.6,11l-5.2-8.9C9.7,0.8,7.9,0.3,6.6,1.1C6.1,1.3,5.8,1.7,5.5,2.1l-5.1,8.9c-0.5,0.9-0.5,2,0,2.9
	c0.5,0.9,1.4,1.4,2.4,1.4h10.3c1,0,2-0.5,2.5-1.4C16.1,13,16.1,11.9,15.6,11z"/>
<path class="st1" d="M8.9,11.4c0,0.5-0.4,0.8-0.9,0.8c-0.5,0-0.8-0.4-0.8-0.9c0-0.5,0.4-0.8,0.8-0.8C8.5,10.5,8.8,10.8,8.9,11.4
	C8.9,11.3,8.9,11.3,8.9,11.4z"/>
<path class="st1" d="M8.9,5.5c0-0.1,0-0.3-0.1-0.4c-0.2-0.4-0.6-0.6-1-0.5C7.4,4.7,7.1,5.1,7.1,5.5c0,0.3,0,0.5,0,0.8
	c0,1,0.1,2,0.2,3c0,0.3,0.3,0.6,0.7,0.6c0,0,0,0,0,0c0.3,0,0.6-0.3,0.6-0.6c0,0,0,0,0,0l0.1-2.2l0,0c0-0.1,0-0.2,0-0.3
	C8.8,6.3,8.8,5.9,8.9,5.5z"/>
</svg>
